<?xml version="1.0" encoding="utf-8"?>
<!-- Generator: Adobe Illustrator 23.0.2, SVG Export Plug-In . SVG Version: 6.00 Build 0)  -->
<svg version="1.1" id="Layer_1" xmlns="http://www.w3.org/2000/svg" xmlns:xlink="http://www.w3.org/1999/xlink" x="0px" y="0px"
	 viewBox="0 0 100 35" style="enable-background:new 0 0 100 35;" xml:space="preserve">
<style type="text/css">
	.st0{fill:#424242;}
	.st1{fill:#F23030;}
</style>
<g>
	<g>
		<path class="st0" d="M35.88,12.04v2.87h-1.42v-7.4h4.87v1.27h-3.46v2.04h3.02v1.22H35.88z"/>
		<path class="st0" d="M40.55,14.91h-1.49l2.83-7.4h1.46l2.79,7.4h-1.49l-0.53-1.51h-3.06L40.55,14.91z M42.59,8.87
			c-0.09,0.3-0.18,0.61-0.29,0.94c-0.11,0.33-0.21,0.64-0.3,0.92l-0.52,1.5h2.23l-0.52-1.5c-0.09-0.25-0.18-0.54-0.3-0.88
			C42.79,9.52,42.69,9.19,42.59,8.87z"/>
		<path class="st0" d="M51.53,13.58v1.33H46.9v-7.4h1.42v6.07H51.53z"/>
		<path class="st0" d="M55.32,13.68c0.32,0,0.67-0.04,1.03-0.11c0.37-0.07,0.69-0.17,0.99-0.28v1.26c-0.43,0.17-0.82,0.29-1.16,0.36
			c-0.34,0.07-0.7,0.1-1.07,0.1c-1.17,0-1.99-0.29-2.45-0.88c-0.46-0.59-0.7-1.57-0.7-2.94c0-1.31,0.28-2.28,0.83-2.89
			c0.55-0.61,1.44-0.91,2.66-0.91c0.36,0,0.68,0.01,0.97,0.02c0.28,0.02,0.54,0.04,0.77,0.08v1.24c-0.3-0.02-0.59-0.04-0.87-0.05
			c-0.28-0.01-0.57-0.02-0.87-0.02c-0.79,0-1.33,0.18-1.61,0.55c-0.28,0.37-0.42,1.03-0.42,1.97c0,0.94,0.13,1.6,0.38,1.95
			C54.04,13.5,54.55,13.68,55.32,13.68z"/>
		<path class="st0" d="M64.73,11.19c0,1.35-0.27,2.32-0.8,2.92c-0.53,0.6-1.39,0.9-2.59,0.9c-1.27,0-2.16-0.28-2.66-0.84
			c-0.5-0.56-0.74-1.56-0.74-2.98c0-1.34,0.27-2.31,0.8-2.9c0.53-0.6,1.4-0.9,2.6-0.9c1.27,0,2.15,0.28,2.64,0.84
			C64.49,8.8,64.73,9.78,64.73,11.19z M59.67,13.06c0.13,0.23,0.31,0.39,0.55,0.48c0.24,0.09,0.62,0.14,1.12,0.14
			c0.78,0,1.3-0.18,1.56-0.53c0.26-0.35,0.39-1,0.39-1.96c0-0.46-0.02-0.85-0.06-1.14c-0.04-0.3-0.12-0.54-0.22-0.73
			c-0.13-0.24-0.31-0.4-0.55-0.5c-0.24-0.1-0.61-0.15-1.11-0.15c-0.79,0-1.31,0.18-1.57,0.53c-0.26,0.35-0.39,1.02-0.39,1.99
			c0,0.46,0.02,0.85,0.07,1.14C59.51,12.64,59.58,12.88,59.67,13.06z"/>
		<path class="st0" d="M72.09,7.51v7.4H70.7l-3.5-5.02v5.02h-1.33v-7.4h1.38l3.52,5.13V7.51H72.09z"/>
		<path class="st0" d="M37.3,24.56l-1.64-0.39c-0.54-0.13-0.92-0.33-1.14-0.62c-0.22-0.29-0.33-0.7-0.33-1.23
			c0-0.8,0.22-1.39,0.66-1.77c0.44-0.38,1.13-0.57,2.05-0.57c0.39,0,0.73,0.02,1.03,0.05c0.3,0.04,0.58,0.09,0.84,0.16v1.27
			c-0.45-0.09-0.81-0.14-1.07-0.17c-0.27-0.03-0.54-0.04-0.83-0.04c-0.47,0-0.81,0.07-1,0.22c-0.2,0.15-0.3,0.4-0.3,0.75
			c0,0.2,0.04,0.36,0.12,0.47c0.08,0.11,0.22,0.18,0.42,0.23l1.59,0.38c0.37,0.09,0.65,0.18,0.83,0.27c0.18,0.09,0.33,0.2,0.45,0.34
			c0.12,0.15,0.21,0.33,0.27,0.55c0.06,0.22,0.09,0.49,0.09,0.81c0,0.83-0.22,1.43-0.66,1.79c-0.44,0.36-1.13,0.54-2.05,0.54
			c-0.48,0-0.94-0.03-1.39-0.09c-0.44-0.06-0.79-0.14-1.04-0.24v-1.33c0.34,0.1,0.72,0.18,1.15,0.24c0.43,0.06,0.86,0.09,1.28,0.09
			c0.46,0,0.79-0.06,0.97-0.19c0.18-0.13,0.28-0.38,0.28-0.76c0-0.24-0.04-0.41-0.11-0.51C37.69,24.7,37.53,24.62,37.3,24.56z"/>
		<path class="st0" d="M44.84,20.1h1.46l-2.67,4.65v2.75h-1.42v-2.75l-2.74-4.65h1.6l1.85,3.39L44.84,20.1z"/>
		<path class="st0" d="M49.68,24.56l-1.64-0.39c-0.54-0.13-0.92-0.33-1.14-0.62c-0.22-0.29-0.33-0.7-0.33-1.23
			c0-0.8,0.22-1.39,0.66-1.77c0.44-0.38,1.12-0.57,2.05-0.57c0.39,0,0.73,0.02,1.03,0.05c0.3,0.04,0.58,0.09,0.84,0.16v1.27
			c-0.45-0.09-0.81-0.14-1.07-0.17c-0.27-0.03-0.54-0.04-0.83-0.04c-0.47,0-0.81,0.07-1,0.22c-0.2,0.15-0.29,0.4-0.29,0.75
			c0,0.2,0.04,0.36,0.12,0.47c0.08,0.11,0.22,0.18,0.42,0.23l1.59,0.38c0.37,0.09,0.64,0.18,0.83,0.27c0.18,0.09,0.33,0.2,0.45,0.34
			c0.12,0.15,0.21,0.33,0.27,0.55c0.06,0.22,0.09,0.49,0.09,0.81c0,0.83-0.22,1.43-0.66,1.79c-0.44,0.36-1.13,0.54-2.05,0.54
			c-0.48,0-0.94-0.03-1.39-0.09c-0.44-0.06-0.79-0.14-1.04-0.24v-1.33c0.34,0.1,0.72,0.18,1.15,0.24c0.43,0.06,0.86,0.09,1.28,0.09
			c0.46,0,0.79-0.06,0.97-0.19c0.18-0.13,0.28-0.38,0.28-0.76c0-0.24-0.04-0.41-0.11-0.51C50.07,24.7,49.91,24.62,49.68,24.56z"/>
		<path class="st0" d="M57.88,20.1v1.27h-2.24v6.12h-1.42v-6.12h-2.23V20.1H57.88z"/>
		<path class="st0" d="M63.74,26.17v1.33h-5v-7.4h4.9v1.27h-3.48v1.75h3.04v1.22h-3.04v1.83H63.74z"/>
		<path class="st0" d="M72,20.1v7.4h-1.33v-5.13l-1.69,3.68h-1.17l-1.68-3.69v5.15H64.8v-7.4h1.75l1.88,4.21l1.89-4.21H72z"/>
		<path class="st0" d="M76.72,25.26v2.24h-1.42v-7.4h2.61c1.09,0,1.87,0.19,2.34,0.58c0.47,0.39,0.7,1.03,0.7,1.92
			c0,0.9-0.25,1.57-0.74,2.01c-0.49,0.43-1.25,0.65-2.27,0.65H76.72z M79.52,22.6c0-0.45-0.12-0.77-0.36-0.95
			c-0.24-0.18-0.65-0.28-1.25-0.28h-1.19v2.64h1.19c0.59,0,1-0.11,1.25-0.32C79.4,23.48,79.52,23.12,79.52,22.6z"/>
		<path class="st0" d="M86.57,26.17v1.33h-4.63v-7.4h1.42v6.07H86.57z"/>
		<path class="st0" d="M91.85,24.47V20.1h1.42v4.37c0,1.06-0.25,1.85-0.76,2.37c-0.5,0.52-1.27,0.77-2.31,0.77
			c-1.06,0-1.84-0.25-2.32-0.74c-0.49-0.5-0.73-1.29-0.73-2.4V20.1h1.42v4.37c0,0.69,0.12,1.17,0.35,1.42
			c0.24,0.26,0.66,0.38,1.29,0.38c0.63,0,1.06-0.13,1.3-0.39C91.73,25.63,91.85,25.15,91.85,24.47z"/>
		<path class="st0" d="M97.46,24.56l-1.64-0.39c-0.54-0.13-0.92-0.33-1.14-0.62c-0.22-0.29-0.33-0.7-0.33-1.23
			c0-0.8,0.22-1.39,0.66-1.77c0.44-0.38,1.12-0.57,2.05-0.57c0.39,0,0.73,0.02,1.03,0.05c0.3,0.04,0.58,0.09,0.84,0.16v1.27
			c-0.45-0.09-0.81-0.14-1.07-0.17c-0.27-0.03-0.54-0.04-0.83-0.04c-0.47,0-0.81,0.07-1,0.22c-0.2,0.15-0.3,0.4-0.3,0.75
			c0,0.2,0.04,0.36,0.12,0.47c0.08,0.11,0.22,0.18,0.42,0.23l1.59,0.38c0.37,0.09,0.65,0.18,0.83,0.27c0.18,0.09,0.33,0.2,0.45,0.34
			c0.12,0.15,0.21,0.33,0.27,0.55c0.06,0.22,0.09,0.49,0.09,0.81c0,0.83-0.22,1.43-0.66,1.79c-0.44,0.36-1.13,0.54-2.05,0.54
			c-0.48,0-0.94-0.03-1.39-0.09c-0.44-0.06-0.79-0.14-1.04-0.24v-1.33c0.34,0.1,0.72,0.18,1.15,0.24c0.43,0.06,0.86,0.09,1.28,0.09
			c0.46,0,0.79-0.06,0.97-0.19c0.18-0.13,0.28-0.38,0.28-0.76c0-0.24-0.04-0.41-0.11-0.51C97.85,24.7,97.69,24.62,97.46,24.56z"/>
	</g>
	<g>
		<path class="st1" d="M2.72,9.73C2.75,9.67,2.77,9.61,2.8,9.55c0.68-1.04,1.47-1.99,2.39-2.83c1.06-0.98,2.24-1.77,3.54-2.4
			c0.9-0.43,1.84-0.77,2.82-1.01c0.83-0.2,1.66-0.31,2.51-0.39c0.92-0.09,1.82,0.03,2.73,0.12c0.47,0.05,0.93,0.1,1.39,0.21
			c0.64,0.16,1.29,0.33,1.91,0.56c1.63,0.59,3.09,1.47,4.41,2.6c0.69,0.6,1.34,1.24,1.89,1.97c0.43,0.59,0.71,1.26,0.93,1.95
			c0.43,1.35,0.5,2.72,0.29,4.11c-0.11,0.72-0.25,1.43-0.53,2.1c-0.7,1.72-1.78,3.12-3.5,3.94c-0.95,0.45-1.96,0.55-2.99,0.39
			c-1.4-0.22-2.64-0.85-3.8-1.63c-0.19-0.13-0.37-0.29-0.53-0.47c-0.74-0.82-1.54-1.56-2.53-2.08c-0.65-0.34-1.33-0.54-2.07-0.48
			c-0.14,0.01-0.19-0.05-0.15-0.19c0.04-0.16,0.16-0.26,0.3-0.3c0.29-0.08,0.59-0.18,0.89-0.19c0.5-0.03,1-0.01,1.51-0.01
			c0.05,0,0.09,0,0.15-0.03c-0.68-0.61-1.46-1.01-2.36-1.16c-1.13-0.19-2.15,0.09-3.1,0.71c0.76,0.01,1.51-0.02,2.26-0.08
			c0,0.01,0.01,0.03,0.01,0.04c-0.03,0.02-0.06,0.05-0.1,0.07c-0.28,0.14-0.56,0.29-0.85,0.41c-0.37,0.15-0.61,0.45-0.55,0.84
			c0,0.02-0.01,0.05-0.01,0.07c-0.3,0.01-0.56-0.21-0.61-0.52c-0.06-0.32-0.06-0.32-0.39-0.32c-1.02-0.01-1.87,0.38-2.52,1.18
			c-0.03,0.04-0.06,0.07-0.11,0.14c0.08,0,0.13,0.01,0.17,0c1.08-0.2,2.16-0.15,3.23,0.09c1.67,0.37,3.09,1.19,4.28,2.41
			c1.02,1.05,1.77,2.27,2.35,3.61c0.64,1.47,1.1,3,1.3,4.59c0.09,0.76,0.09,1.52-0.11,2.26c-0.33,1.21-1.13,1.9-2.34,2.16
			c-0.49,0.1-0.98,0.16-1.48,0.12c-0.69-0.06-1.38-0.16-2.05-0.34c-2.16-0.56-3.98-1.74-5.66-3.15c-1.63-1.37-2.94-3-3.86-4.93
			c-0.7-1.46-1.12-3-1.27-4.62c-0.15-1.51-0.07-3,0.2-4.49c0.08-0.44,0.18-0.87,0.27-1.3c0-0.02,0.01-0.04,0.05-0.07
			c0,0.05,0.01,0.11,0,0.16c-0.17,1.34-0.18,2.69-0.1,4.03c0.07,1.17,0.26,2.33,0.62,3.45c0.33,1,0.79,1.93,1.5,2.72
			c0.84,0.93,1.88,1.49,3.11,1.68c1.36,0.22,2.59-0.14,3.65-0.99c0.79-0.63,1.25-1.49,1.36-2.49c0.18-1.7-0.48-3.05-1.85-4.03
			c-0.82-0.59-1.75-0.66-2.71-0.4c-0.49,0.13-0.95,0.34-1.38,0.6c-0.04,0.02-0.09,0.04-0.16,0.08c-0.04-0.23-0.04-0.44,0.01-0.64
			c0.11-0.5,0.4-0.89,0.79-1.22c0.48-0.41,1.05-0.68,1.63-0.91c0.09-0.03,0.18-0.09,0.24-0.16c0.76-0.82,1.67-1.37,2.76-1.61
			c0.69-0.15,1.39-0.14,2.08,0.01c1.45,0.32,2.65,1.11,3.75,2.07c0.8,0.7,1.52,1.49,2.19,2.32c0.02,0.02,0.03,0.05,0.05,0.07
			c0,0.01,0,0.02,0,0.01c-0.27-0.06-0.54-0.13-0.81-0.18c-0.2-0.03-0.39,0-0.55,0.14c-0.07,0.06-0.09,0.11,0.01,0.17
			c1.2,0.63,2.47,1.03,3.84,0.93c1.36-0.1,2.41-0.76,3.18-1.88c0.82-1.19,1.15-2.52,1.09-3.95c-0.08-1.83-0.72-3.47-1.79-4.94
			c-1.01-1.37-2.3-2.38-3.87-3.04c-0.98-0.42-1.98-0.78-3.02-1.04c-1.57-0.39-3.16-0.52-4.77-0.32c-1.98,0.25-3.78,0.99-5.4,2.14
			C5.11,7,3.91,8.24,2.86,9.62C2.82,9.67,2.78,9.71,2.75,9.75C2.74,9.75,2.73,9.74,2.72,9.73z M9.15,15.64
			c0,0.12,0.12,0.25,0.25,0.25c0.12,0,0.25-0.12,0.25-0.25c0-0.12-0.13-0.25-0.25-0.25C9.28,15.4,9.15,15.52,9.15,15.64z"/>
		<path class="st1" d="M29.36,15.05c0.05,0.41,0.09,0.79,0.13,1.17c0.13,1.18,0.04,2.35-0.14,3.52c-0.19,1.22-0.54,2.39-1.04,3.52
			c-1,2.25-2.47,4.13-4.41,5.65c-0.7,0.55-1.45,1.02-2.24,1.42c-0.08,0.04-0.18,0.06-0.27,0.06c-1.01-0.01-1.81-0.47-2.43-1.24
			c-0.63-0.77-0.97-1.67-1.21-2.62c-0.17-0.67-0.28-1.35-0.51-2c-0.55-1.53-1.21-3.01-1.98-4.45c-0.08-0.16-0.17-0.31-0.25-0.47
			c-0.08-0.16-0.04-0.32,0.1-0.44c0.13-0.11,0.29-0.12,0.43-0.01c0.7,0.54,1.39,1.08,2.1,1.61c0.94,0.71,1.99,1.2,3.15,1.41
			c1.26,0.23,2.49,0.06,3.65-0.47c1.82-0.82,3.15-2.15,4.04-3.93c0.4-0.79,0.66-1.63,0.8-2.51c0.01-0.06,0.02-0.13,0.04-0.19
			C29.31,15.09,29.32,15.08,29.36,15.05z"/>
		<path class="st1" d="M9.15,15.64c0-0.12,0.13-0.25,0.25-0.25c0.12,0,0.25,0.13,0.25,0.25c0,0.12-0.13,0.25-0.25,0.25
			C9.27,15.89,9.15,15.77,9.15,15.64z"/>
	</g>
</g>
</svg>
